<svg width="24" height="24" viewBox="0 0 24 24" fill="none" xmlns="http://www.w3.org/2000/svg">
<path d="M13.22 18L10.884 13.76H10.228V18H7.492V6.768H12.084C12.9693 6.768 13.7213 6.92267 14.34 7.232C14.9693 7.54133 15.4387 7.968 15.748 8.512C16.0573 9.04533 16.212 9.64267 16.212 10.304C16.212 11.0507 15.9987 11.7173 15.572 12.304C15.156 12.8907 14.5373 13.3067 13.716 13.552L16.308 18H13.22ZM10.228 11.824H11.924C12.4253 11.824 12.7987 11.7013 13.044 11.456C13.3 11.2107 13.428 10.864 13.428 10.416C13.428 9.98933 13.3 9.65333 13.044 9.408C12.7987 9.16267 12.4253 9.04 11.924 9.04H10.228V11.824Z" fill="#317AE2"/>
<path d="M16.272 21L14.56 18.52L13.12 21H10.16L13.104 16.44L10.08 12.072H13.152L14.864 14.536L16.304 12.072H19.264L16.272 16.568L19.344 21H16.272Z" fill="#317AE2"/>
</svg>
