<svg width="18" height="24" viewBox="0 0 18 24" fill="none" xmlns="http://www.w3.org/2000/svg">
<path d="M8.99984 23.6666C8.47484 23.6666 8.01303 23.5403 7.61442 23.2875C7.21581 23.0347 6.95817 22.6847 6.8415 22.2375H6.43317C5.9665 22.2375 5.55817 22.0625 5.20817 21.7125C4.85817 21.3625 4.68317 20.9541 4.68317 20.4875V16.3166C3.39984 15.4805 2.38873 14.4111 1.64984 13.1083C0.910948 11.8055 0.541504 10.3666 0.541504 8.79165C0.541504 6.43887 1.36303 4.44095 3.00609 2.7979C4.64914 1.15484 6.64706 0.333313 8.99984 0.333313C11.3526 0.333313 13.3505 1.15484 14.9936 2.7979C16.6366 4.44095 17.4582 6.43887 17.4582 8.79165C17.4582 10.3666 17.0887 11.8055 16.3498 13.1083C15.6109 14.4111 14.5998 15.4805 13.3165 16.3166V20.4875C13.3165 20.9541 13.1415 21.3625 12.7915 21.7125C12.4415 22.0625 12.0332 22.2375 11.5665 22.2375H11.1582C11.0415 22.6847 10.7839 23.0347 10.3853 23.2875C9.98664 23.5403 9.52484 23.6666 8.99984 23.6666ZM6.43317 18.0375H11.5665V16.8708H6.43317V18.0375ZM6.43317 20.4875H11.5665V19.2041H6.43317V20.4875ZM9.67067 15.1208V11.125L12.354 8.44165L11.4498 7.53748L8.99984 9.98748L6.54984 7.53748L5.64567 8.44165L8.329 11.125V15.1208H9.67067Z" fill="#FFCC01"/>
</svg>
